<svg xmlns="http://www.w3.org/2000/svg" viewBox="0 0 500 500" width="100%" height="100%">
  <!-- Shaded facets -->
  <polygon points="220,80 190,110 220,135" fill="rgba(0, 153, 102, 0.015)" stroke="none" />
  <polygon points="220,80 220,135 270,55" fill="rgba(0, 153, 102, 0.027)" stroke="none" />
  <polygon points="270,55 220,135 270,115" fill="rgba(0, 153, 102, 0.039)" stroke="none" />
  <polygon points="190,110 170,140 220,135" fill="rgba(0, 153, 102, 0.051)" stroke="none" />
  <polygon points="170,140 170,185 220,135" fill="rgba(0, 153, 102, 0.063)" stroke="none" />
  <polygon points="160,170 170,185 152,195" fill="rgba(0, 153, 102, 0.075)" stroke="none" />
  <polygon points="160,170 152,195 170,185" fill="rgba(0, 153, 102, 0.015)" stroke="none" />
  <polygon points="170,140 160,170 170,185" fill="rgba(0, 153, 102, 0.027)" stroke="none" />
  <polygon points="170,185 200,178 220,135" fill="rgba(0, 153, 102, 0.039)" stroke="none" />
  <polygon points="220,135 200,178 270,115" fill="rgba(0, 153, 102, 0.051)" stroke="none" />
  <polygon points="270,115 200,178 230,182" fill="rgba(0, 153, 102, 0.063)" stroke="none" />
  <polygon points="270,115 230,182 285,170" fill="rgba(0, 153, 102, 0.075)" stroke="none" />
  <polygon points="270,115 285,170 335,150" fill="rgba(0, 153, 102, 0.015)" stroke="none" />
  <polygon points="270,55 270,115 320,68" fill="rgba(0, 153, 102, 0.027)" stroke="none" />
  <polygon points="320,68 270,115 335,150" fill="rgba(0, 153, 102, 0.039)" stroke="none" />
  <polygon points="320,68 335,150 360,100" fill="rgba(0, 153, 102, 0.051)" stroke="none" />
  <polygon points="360,100 335,150 385,145" fill="rgba(0, 153, 102, 0.063)" stroke="none" />
  <polygon points="385,145 335,150 285,170" fill="rgba(0, 153, 102, 0.075)" stroke="none" />
  <polygon points="170,185 180,215 200,190" fill="rgba(0, 153, 102, 0.015)" stroke="none" />
  <polygon points="170,185 200,190 200,178" fill="rgba(0, 153, 102, 0.027)" stroke="none" />
  <polygon points="200,178 200,190 200,202" fill="rgba(0, 153, 102, 0.039)" stroke="none" />
  <polygon points="200,178 200,202 230,182" fill="rgba(0, 153, 102, 0.051)" stroke="none" />
  <polygon points="230,182 200,202 220,210" fill="rgba(0, 153, 102, 0.063)" stroke="none" />
  <polygon points="230,182 220,210 240,220" fill="rgba(0, 153, 102, 0.075)" stroke="none" />
  <polygon points="240,220 220,210 235,250" fill="rgba(0, 153, 102, 0.015)" stroke="none" />
  <polygon points="152,195 180,215 170,185" fill="rgba(0, 153, 102, 0.027)" stroke="none" />
  <polygon points="152,195 150,215 180,215" fill="rgba(0, 153, 102, 0.039)" stroke="none" />
  <polygon points="150,215 170,230 180,215" fill="rgba(0, 153, 102, 0.051)" stroke="none" />
  <polygon points="180,215 170,230 200,222" fill="rgba(0, 153, 102, 0.063)" stroke="none" />
  <polygon points="180,215 200,222 200,202" fill="rgba(0, 153, 102, 0.075)" stroke="none" />
  <polygon points="200,202 200,222 200,212" fill="rgba(0, 153, 102, 0.015)" stroke="none" />
  <polygon points="200,202 200,212 220,210" fill="rgba(0, 153, 102, 0.027)" stroke="none" />
  <polygon points="220,210 200,212 200,222" fill="rgba(0, 153, 102, 0.039)" stroke="none" />
  <polygon points="220,210 200,222 205,265" fill="rgba(0, 153, 102, 0.051)" stroke="none" />
  <polygon points="220,210 205,265 235,250" fill="rgba(0, 153, 102, 0.063)" stroke="none" />
  <polygon points="200,222 200,235 205,265" fill="rgba(0, 153, 102, 0.075)" stroke="none" />
  <polygon points="180,215 200,235 200,222" fill="rgba(0, 153, 102, 0.015)" stroke="none" />
  <polygon points="150,215 135,230 170,230" fill="rgba(0, 153, 102, 0.027)" stroke="none" />
  <polygon points="135,230 120,245 170,230" fill="rgba(0, 153, 102, 0.039)" stroke="none" />
  <polygon points="120,245 142,262 165,258" fill="rgba(0, 153, 102, 0.051)" stroke="none" />
  <polygon points="120,245 165,258 170,230" fill="rgba(0, 153, 102, 0.063)" stroke="none" />
  <polygon points="142,262 152,272 165,258" fill="rgba(0, 153, 102, 0.075)" stroke="none" />
  <polygon points="152,272 148,285 165,258" fill="rgba(0, 153, 102, 0.015)" stroke="none" />
  <polygon points="148,285 182,290 165,258" fill="rgba(0, 153, 102, 0.027)" stroke="none" />
  <polygon points="170,230 165,258 205,265" fill="rgba(0, 153, 102, 0.039)" stroke="none" />
  <polygon points="170,230 205,265 200,235" fill="rgba(0, 153, 102, 0.051)" stroke="none" />
  <polygon points="170,230 200,235 180,215" fill="rgba(0, 153, 102, 0.063)" stroke="none" />
  <polygon points="148,285 156,296 182,290" fill="rgba(0, 153, 102, 0.075)" stroke="none" />
  <polygon points="156,296 148,308 182,290" fill="rgba(0, 153, 102, 0.015)" stroke="none" />
  <polygon points="148,308 154,323 182,290" fill="rgba(0, 153, 102, 0.027)" stroke="none" />
  <polygon points="154,323 152,342 185,335" fill="rgba(0, 153, 102, 0.039)" stroke="none" />
  <polygon points="154,323 185,335 182,290" fill="rgba(0, 153, 102, 0.051)" stroke="none" />
  <polygon points="152,342 164,362 185,335" fill="rgba(0, 153, 102, 0.063)" stroke="none" />
  <polygon points="164,362 185,380 185,335" fill="rgba(0, 153, 102, 0.075)" stroke="none" />
  <polygon points="205,265 182,290 235,250" fill="rgba(0, 153, 102, 0.015)" stroke="none" />
  <polygon points="182,290 260,280 235,250" fill="rgba(0, 153, 102, 0.027)" stroke="none" />
  <polygon points="182,290 185,335 260,280" fill="rgba(0, 153, 102, 0.039)" stroke="none" />
  <polygon points="185,335 220,375 260,280" fill="rgba(0, 153, 102, 0.051)" stroke="none" />
  <polygon points="185,335 185,380 220,375" fill="rgba(0, 153, 102, 0.063)" stroke="none" />
  <polygon points="185,380 205,400 220,375" fill="rgba(0, 153, 102, 0.075)" stroke="none" />
  <polygon points="240,220 235,250 285,170" fill="rgba(0, 153, 102, 0.015)" stroke="none" />
  <polygon points="235,250 260,280 285,170" fill="rgba(0, 153, 102, 0.027)" stroke="none" />
  <polygon points="260,280 255,325 285,170" fill="rgba(0, 153, 102, 0.039)" stroke="none" />
  <polygon points="235,250 205,265 260,280" fill="rgba(0, 153, 102, 0.051)" stroke="none" />
  <polygon points="260,280 220,375 255,325" fill="rgba(0, 153, 102, 0.063)" stroke="none" />
  <polygon points="220,375 280,360 255,325" fill="rgba(0, 153, 102, 0.075)" stroke="none" />
  <polygon points="220,375 205,400 280,360" fill="rgba(0, 153, 102, 0.015)" stroke="none" />
  <polygon points="205,400 275,415 280,360" fill="rgba(0, 153, 102, 0.027)" stroke="none" />
  <polygon points="205,400 220,470 275,415" fill="rgba(0, 153, 102, 0.039)" stroke="none" />
  <polygon points="220,470 265,470 275,415" fill="rgba(0, 153, 102, 0.051)" stroke="none" />
  <polygon points="280,360 275,415 340,220" fill="rgba(0, 153, 102, 0.063)" stroke="none" />
  <polygon points="280,360 340,220 335,290" fill="rgba(0, 153, 102, 0.075)" stroke="none" />
  <polygon points="280,360 335,290 255,325" fill="rgba(0, 153, 102, 0.015)" stroke="none" />
  <polygon points="255,325 335,290 285,170" fill="rgba(0, 153, 102, 0.027)" stroke="none" />
  <polygon points="285,170 295,205 335,150" fill="rgba(0, 153, 102, 0.039)" stroke="none" />
  <polygon points="285,170 295,230 295,205" fill="rgba(0, 153, 102, 0.051)" stroke="none" />
  <polygon points="285,170 335,290 295,230" fill="rgba(0, 153, 102, 0.063)" stroke="none" />
  <polygon points="335,290 290,255 295,230" fill="rgba(0, 153, 102, 0.075)" stroke="none" />
  <polygon points="335,290 320,330 290,255" fill="rgba(0, 153, 102, 0.015)" stroke="none" />
  <polygon points="320,330 280,360 290,255" fill="rgba(0, 153, 102, 0.027)" stroke="none" />
  <polygon points="335,150 295,205 385,145" fill="rgba(0, 153, 102, 0.039)" stroke="none" />
  <polygon points="385,145 295,205 395,200" fill="rgba(0, 153, 102, 0.051)" stroke="none" />
  <polygon points="395,200 295,205 340,220" fill="rgba(0, 153, 102, 0.063)" stroke="none" />
  <polygon points="295,205 290,255 340,220" fill="rgba(0, 153, 102, 0.075)" stroke="none" />
  <polygon points="290,255 320,330 340,220" fill="rgba(0, 153, 102, 0.015)" stroke="none" />
  <polygon points="340,220 320,330 335,290" fill="rgba(0, 153, 102, 0.027)" stroke="none" />
  <polygon points="295,205 312,200 295,230" fill="rgba(0, 153, 102, 0.039)" stroke="none" />
  <polygon points="312,200 325,225 295,230" fill="rgba(0, 153, 102, 0.051)" stroke="none" />
  <polygon points="325,225 322,250 295,230" fill="rgba(0, 153, 102, 0.063)" stroke="none" />
  <polygon points="322,250 305,268 295,230" fill="rgba(0, 153, 102, 0.075)" stroke="none" />
  <polygon points="305,268 290,255 295,230" fill="rgba(0, 153, 102, 0.015)" stroke="none" />
  <polygon points="360,100 385,145 335,150" fill="rgba(0, 153, 102, 0.027)" stroke="none" />
  <polygon points="385,145 395,200 340,220" fill="rgba(0, 153, 102, 0.039)" stroke="none" />
  <polygon points="395,200 392,260 340,220" fill="rgba(0, 153, 102, 0.051)" stroke="none" />
  <polygon points="392,260 375,320 340,220" fill="rgba(0, 153, 102, 0.063)" stroke="none" />
  <polygon points="375,320 320,330 340,220" fill="rgba(0, 153, 102, 0.075)" stroke="none" />
  <polygon points="375,320 340,380 320,330" fill="rgba(0, 153, 102, 0.015)" stroke="none" />
  <polygon points="340,380 280,360 320,330" fill="rgba(0, 153, 102, 0.027)" stroke="none" />
  <polygon points="340,380 275,415 280,360" fill="rgba(0, 153, 102, 0.039)" stroke="none" />
  <polygon points="340,380 310,470 275,415" fill="rgba(0, 153, 102, 0.051)" stroke="none" />
  <polygon points="310,470 265,470 275,415" fill="rgba(0, 153, 102, 0.063)" stroke="none" />

  <!-- Wireframe lines -->
  <polygon points="220,80 190,110 220,135" fill="none" stroke="#009966" stroke-width="0.85" opacity="0.45" />
  <polygon points="220,80 220,135 270,55" fill="none" stroke="#009966" stroke-width="0.85" opacity="0.45" />
  <polygon points="270,55 220,135 270,115" fill="none" stroke="#009966" stroke-width="0.85" opacity="0.45" />
  <polygon points="190,110 170,140 220,135" fill="none" stroke="#009966" stroke-width="0.85" opacity="0.45" />
  <polygon points="170,140 170,185 220,135" fill="none" stroke="#009966" stroke-width="0.85" opacity="0.45" />
  <polygon points="160,170 170,185 152,195" fill="none" stroke="#009966" stroke-width="0.85" opacity="0.45" />
  <polygon points="160,170 152,195 170,185" fill="none" stroke="#009966" stroke-width="0.85" opacity="0.45" />
  <polygon points="170,140 160,170 170,185" fill="none" stroke="#009966" stroke-width="0.85" opacity="0.45" />
  <polygon points="170,185 200,178 220,135" fill="none" stroke="#009966" stroke-width="0.85" opacity="0.45" />
  <polygon points="220,135 200,178 270,115" fill="none" stroke="#009966" stroke-width="0.85" opacity="0.45" />
  <polygon points="270,115 200,178 230,182" fill="none" stroke="#009966" stroke-width="0.85" opacity="0.45" />
  <polygon points="270,115 230,182 285,170" fill="none" stroke="#009966" stroke-width="0.85" opacity="0.45" />
  <polygon points="270,115 285,170 335,150" fill="none" stroke="#009966" stroke-width="0.85" opacity="0.45" />
  <polygon points="270,55 270,115 320,68" fill="none" stroke="#009966" stroke-width="0.85" opacity="0.45" />
  <polygon points="320,68 270,115 335,150" fill="none" stroke="#009966" stroke-width="0.85" opacity="0.45" />
  <polygon points="320,68 335,150 360,100" fill="none" stroke="#009966" stroke-width="0.85" opacity="0.45" />
  <polygon points="360,100 335,150 385,145" fill="none" stroke="#009966" stroke-width="0.85" opacity="0.45" />
  <polygon points="385,145 335,150 285,170" fill="none" stroke="#009966" stroke-width="0.85" opacity="0.45" />
  <polygon points="170,185 180,215 200,190" fill="none" stroke="#009966" stroke-width="0.85" opacity="0.45" />
  <polygon points="170,185 200,190 200,178" fill="none" stroke="#009966" stroke-width="0.85" opacity="0.45" />
  <polygon points="200,178 200,190 200,202" fill="none" stroke="#009966" stroke-width="0.85" opacity="0.45" />
  <polygon points="200,178 200,202 230,182" fill="none" stroke="#009966" stroke-width="0.85" opacity="0.45" />
  <polygon points="230,182 200,202 220,210" fill="none" stroke="#009966" stroke-width="0.85" opacity="0.45" />
  <polygon points="230,182 220,210 240,220" fill="none" stroke="#009966" stroke-width="0.85" opacity="0.45" />
  <polygon points="240,220 220,210 235,250" fill="none" stroke="#009966" stroke-width="0.85" opacity="0.45" />
  <polygon points="152,195 180,215 170,185" fill="none" stroke="#009966" stroke-width="0.85" opacity="0.45" />
  <polygon points="152,195 150,215 180,215" fill="none" stroke="#009966" stroke-width="0.85" opacity="0.45" />
  <polygon points="150,215 170,230 180,215" fill="none" stroke="#009966" stroke-width="0.85" opacity="0.45" />
  <polygon points="180,215 170,230 200,222" fill="none" stroke="#009966" stroke-width="0.85" opacity="0.45" />
  <polygon points="180,215 200,222 200,202" fill="none" stroke="#009966" stroke-width="0.85" opacity="0.45" />
  <polygon points="200,202 200,222 200,212" fill="none" stroke="#009966" stroke-width="0.85" opacity="0.45" />
  <polygon points="200,202 200,212 220,210" fill="none" stroke="#009966" stroke-width="0.85" opacity="0.45" />
  <polygon points="220,210 200,212 200,222" fill="none" stroke="#009966" stroke-width="0.85" opacity="0.45" />
  <polygon points="220,210 200,222 205,265" fill="none" stroke="#009966" stroke-width="0.85" opacity="0.45" />
  <polygon points="220,210 205,265 235,250" fill="none" stroke="#009966" stroke-width="0.85" opacity="0.45" />
  <polygon points="200,222 200,235 205,265" fill="none" stroke="#009966" stroke-width="0.85" opacity="0.45" />
  <polygon points="180,215 200,235 200,222" fill="none" stroke="#009966" stroke-width="0.85" opacity="0.45" />
  <polygon points="150,215 135,230 170,230" fill="none" stroke="#009966" stroke-width="0.85" opacity="0.45" />
  <polygon points="135,230 120,245 170,230" fill="none" stroke="#009966" stroke-width="0.85" opacity="0.45" />
  <polygon points="120,245 142,262 165,258" fill="none" stroke="#009966" stroke-width="0.85" opacity="0.45" />
  <polygon points="120,245 165,258 170,230" fill="none" stroke="#009966" stroke-width="0.85" opacity="0.45" />
  <polygon points="142,262 152,272 165,258" fill="none" stroke="#009966" stroke-width="0.85" opacity="0.45" />
  <polygon points="152,272 148,285 165,258" fill="none" stroke="#009966" stroke-width="0.85" opacity="0.45" />
  <polygon points="148,285 182,290 165,258" fill="none" stroke="#009966" stroke-width="0.85" opacity="0.45" />
  <polygon points="170,230 165,258 205,265" fill="none" stroke="#009966" stroke-width="0.85" opacity="0.45" />
  <polygon points="170,230 205,265 200,235" fill="none" stroke="#009966" stroke-width="0.85" opacity="0.45" />
  <polygon points="170,230 200,235 180,215" fill="none" stroke="#009966" stroke-width="0.85" opacity="0.45" />
  <polygon points="148,285 156,296 182,290" fill="none" stroke="#009966" stroke-width="0.85" opacity="0.45" />
  <polygon points="156,296 148,308 182,290" fill="none" stroke="#009966" stroke-width="0.85" opacity="0.45" />
  <polygon points="148,308 154,323 182,290" fill="none" stroke="#009966" stroke-width="0.85" opacity="0.45" />
  <polygon points="154,323 152,342 185,335" fill="none" stroke="#009966" stroke-width="0.85" opacity="0.45" />
  <polygon points="154,323 185,335 182,290" fill="none" stroke="#009966" stroke-width="0.85" opacity="0.45" />
  <polygon points="152,342 164,362 185,335" fill="none" stroke="#009966" stroke-width="0.85" opacity="0.45" />
  <polygon points="164,362 185,380 185,335" fill="none" stroke="#009966" stroke-width="0.85" opacity="0.45" />
  <polygon points="205,265 182,290 235,250" fill="none" stroke="#009966" stroke-width="0.85" opacity="0.45" />
  <polygon points="182,290 260,280 235,250" fill="none" stroke="#009966" stroke-width="0.85" opacity="0.45" />
  <polygon points="182,290 185,335 260,280" fill="none" stroke="#009966" stroke-width="0.85" opacity="0.45" />
  <polygon points="185,335 220,375 260,280" fill="none" stroke="#009966" stroke-width="0.85" opacity="0.45" />
  <polygon points="185,335 185,380 220,375" fill="none" stroke="#009966" stroke-width="0.85" opacity="0.45" />
  <polygon points="185,380 205,400 220,375" fill="none" stroke="#009966" stroke-width="0.85" opacity="0.45" />
  <polygon points="240,220 235,250 285,170" fill="none" stroke="#009966" stroke-width="0.85" opacity="0.45" />
  <polygon points="235,250 260,280 285,170" fill="none" stroke="#009966" stroke-width="0.85" opacity="0.45" />
  <polygon points="260,280 255,325 285,170" fill="none" stroke="#009966" stroke-width="0.85" opacity="0.45" />
  <polygon points="235,250 205,265 260,280" fill="none" stroke="#009966" stroke-width="0.85" opacity="0.45" />
  <polygon points="260,280 220,375 255,325" fill="none" stroke="#009966" stroke-width="0.85" opacity="0.45" />
  <polygon points="220,375 280,360 255,325" fill="none" stroke="#009966" stroke-width="0.85" opacity="0.45" />
  <polygon points="220,375 205,400 280,360" fill="none" stroke="#009966" stroke-width="0.85" opacity="0.45" />
  <polygon points="205,400 275,415 280,360" fill="none" stroke="#009966" stroke-width="0.85" opacity="0.45" />
  <polygon points="205,400 220,470 275,415" fill="none" stroke="#009966" stroke-width="0.85" opacity="0.45" />
  <polygon points="220,470 265,470 275,415" fill="none" stroke="#009966" stroke-width="0.85" opacity="0.45" />
  <polygon points="280,360 275,415 340,220" fill="none" stroke="#009966" stroke-width="0.85" opacity="0.45" />
  <polygon points="280,360 340,220 335,290" fill="none" stroke="#009966" stroke-width="0.85" opacity="0.45" />
  <polygon points="280,360 335,290 255,325" fill="none" stroke="#009966" stroke-width="0.85" opacity="0.45" />
  <polygon points="255,325 335,290 285,170" fill="none" stroke="#009966" stroke-width="0.85" opacity="0.45" />
  <polygon points="285,170 295,205 335,150" fill="none" stroke="#009966" stroke-width="0.85" opacity="0.45" />
  <polygon points="285,170 295,230 295,205" fill="none" stroke="#009966" stroke-width="0.85" opacity="0.45" />
  <polygon points="285,170 335,290 295,230" fill="none" stroke="#009966" stroke-width="0.85" opacity="0.45" />
  <polygon points="335,290 290,255 295,230" fill="none" stroke="#009966" stroke-width="0.85" opacity="0.45" />
  <polygon points="335,290 320,330 290,255" fill="none" stroke="#009966" stroke-width="0.85" opacity="0.45" />
  <polygon points="320,330 280,360 290,255" fill="none" stroke="#009966" stroke-width="0.85" opacity="0.45" />
  <polygon points="335,150 295,205 385,145" fill="none" stroke="#009966" stroke-width="0.85" opacity="0.45" />
  <polygon points="385,145 295,205 395,200" fill="none" stroke="#009966" stroke-width="0.85" opacity="0.45" />
  <polygon points="395,200 295,205 340,220" fill="none" stroke="#009966" stroke-width="0.85" opacity="0.45" />
  <polygon points="295,205 290,255 340,220" fill="none" stroke="#009966" stroke-width="0.85" opacity="0.45" />
  <polygon points="290,255 320,330 340,220" fill="none" stroke="#009966" stroke-width="0.85" opacity="0.45" />
  <polygon points="340,220 320,330 335,290" fill="none" stroke="#009966" stroke-width="0.85" opacity="0.45" />
  <polygon points="295,205 312,200 295,230" fill="none" stroke="#009966" stroke-width="0.85" opacity="0.45" />
  <polygon points="312,200 325,225 295,230" fill="none" stroke="#009966" stroke-width="0.85" opacity="0.45" />
  <polygon points="325,225 322,250 295,230" fill="none" stroke="#009966" stroke-width="0.85" opacity="0.45" />
  <polygon points="322,250 305,268 295,230" fill="none" stroke="#009966" stroke-width="0.85" opacity="0.45" />
  <polygon points="305,268 290,255 295,230" fill="none" stroke="#009966" stroke-width="0.85" opacity="0.45" />
  <polygon points="360,100 385,145 335,150" fill="none" stroke="#009966" stroke-width="0.85" opacity="0.45" />
  <polygon points="385,145 395,200 340,220" fill="none" stroke="#009966" stroke-width="0.85" opacity="0.45" />
  <polygon points="395,200 392,260 340,220" fill="none" stroke="#009966" stroke-width="0.85" opacity="0.45" />
  <polygon points="392,260 375,320 340,220" fill="none" stroke="#009966" stroke-width="0.85" opacity="0.45" />
  <polygon points="375,320 320,330 340,220" fill="none" stroke="#009966" stroke-width="0.85" opacity="0.45" />
  <polygon points="375,320 340,380 320,330" fill="none" stroke="#009966" stroke-width="0.85" opacity="0.45" />
  <polygon points="340,380 280,360 320,330" fill="none" stroke="#009966" stroke-width="0.85" opacity="0.45" />
  <polygon points="340,380 275,415 280,360" fill="none" stroke="#009966" stroke-width="0.85" opacity="0.45" />
  <polygon points="340,380 310,470 275,415" fill="none" stroke="#009966" stroke-width="0.85" opacity="0.45" />
  <polygon points="310,470 265,470 275,415" fill="none" stroke="#009966" stroke-width="0.85" opacity="0.45" />

  <!-- Glowing vertices -->
  <circle cx="220" cy="80" r="1.5" fill="#00ff99" />
  <circle cx="220" cy="80" r="4" fill="rgba(0, 153, 102, 0.15)" />
  <circle cx="190" cy="110" r="1.5" fill="#00ff99" />
  <circle cx="190" cy="110" r="4" fill="rgba(0, 153, 102, 0.15)" />
  <circle cx="170" cy="140" r="1.5" fill="#00ff99" />
  <circle cx="170" cy="140" r="4" fill="rgba(0, 153, 102, 0.15)" />
  <circle cx="160" cy="170" r="1.5" fill="#00ff99" />
  <circle cx="160" cy="170" r="4" fill="rgba(0, 153, 102, 0.15)" />
  <circle cx="152" cy="195" r="1.5" fill="#00ff99" />
  <circle cx="152" cy="195" r="4" fill="rgba(0, 153, 102, 0.15)" />
  <circle cx="150" cy="215" r="1.5" fill="#00ff99" />
  <circle cx="150" cy="215" r="4" fill="rgba(0, 153, 102, 0.15)" />
  <circle cx="135" cy="230" r="1.5" fill="#00ff99" />
  <circle cx="135" cy="230" r="4" fill="rgba(0, 153, 102, 0.15)" />
  <circle cx="120" cy="245" r="1.5" fill="#00ff99" />
  <circle cx="120" cy="245" r="4" fill="rgba(0, 153, 102, 0.15)" />
  <circle cx="142" cy="262" r="1.5" fill="#00ff99" />
  <circle cx="142" cy="262" r="4" fill="rgba(0, 153, 102, 0.15)" />
  <circle cx="152" cy="272" r="1.5" fill="#00ff99" />
  <circle cx="152" cy="272" r="4" fill="rgba(0, 153, 102, 0.15)" />
  <circle cx="148" cy="285" r="1.5" fill="#00ff99" />
  <circle cx="148" cy="285" r="4" fill="rgba(0, 153, 102, 0.15)" />
  <circle cx="156" cy="296" r="1.5" fill="#00ff99" />
  <circle cx="156" cy="296" r="4" fill="rgba(0, 153, 102, 0.15)" />
  <circle cx="148" cy="308" r="1.5" fill="#00ff99" />
  <circle cx="148" cy="308" r="4" fill="rgba(0, 153, 102, 0.15)" />
  <circle cx="154" cy="323" r="1.5" fill="#00ff99" />
  <circle cx="154" cy="323" r="4" fill="rgba(0, 153, 102, 0.15)" />
  <circle cx="152" cy="342" r="1.5" fill="#00ff99" />
  <circle cx="152" cy="342" r="4" fill="rgba(0, 153, 102, 0.15)" />
  <circle cx="164" cy="362" r="1.5" fill="#00ff99" />
  <circle cx="164" cy="362" r="4" fill="rgba(0, 153, 102, 0.15)" />
  <circle cx="185" cy="380" r="1.5" fill="#00ff99" />
  <circle cx="185" cy="380" r="4" fill="rgba(0, 153, 102, 0.15)" />
  <circle cx="205" cy="400" r="1.5" fill="#00ff99" />
  <circle cx="205" cy="400" r="4" fill="rgba(0, 153, 102, 0.15)" />
  <circle cx="220" cy="470" r="1.5" fill="#00ff99" />
  <circle cx="220" cy="470" r="4" fill="rgba(0, 153, 102, 0.15)" />
  <circle cx="270" cy="55" r="1.5" fill="#00ff99" />
  <circle cx="270" cy="55" r="4" fill="rgba(0, 153, 102, 0.15)" />
  <circle cx="320" cy="68" r="1.5" fill="#00ff99" />
  <circle cx="320" cy="68" r="4" fill="rgba(0, 153, 102, 0.15)" />
  <circle cx="360" cy="100" r="1.5" fill="#00ff99" />
  <circle cx="360" cy="100" r="4" fill="rgba(0, 153, 102, 0.15)" />
  <circle cx="385" cy="145" r="1.5" fill="#00ff99" />
  <circle cx="385" cy="145" r="4" fill="rgba(0, 153, 102, 0.15)" />
  <circle cx="395" cy="200" r="1.5" fill="#00ff99" />
  <circle cx="395" cy="200" r="4" fill="rgba(0, 153, 102, 0.15)" />
  <circle cx="392" cy="260" r="1.5" fill="#00ff99" />
  <circle cx="392" cy="260" r="4" fill="rgba(0, 153, 102, 0.15)" />
  <circle cx="375" cy="320" r="1.5" fill="#00ff99" />
  <circle cx="375" cy="320" r="4" fill="rgba(0, 153, 102, 0.15)" />
  <circle cx="340" cy="380" r="1.5" fill="#00ff99" />
  <circle cx="340" cy="380" r="4" fill="rgba(0, 153, 102, 0.15)" />
  <circle cx="310" cy="470" r="1.5" fill="#00ff99" />
  <circle cx="310" cy="470" r="4" fill="rgba(0, 153, 102, 0.15)" />
  <circle cx="180" cy="215" r="1.5" fill="#00ff99" />
  <circle cx="180" cy="215" r="4" fill="rgba(0, 153, 102, 0.15)" />
  <circle cx="220" cy="210" r="1.5" fill="#00ff99" />
  <circle cx="220" cy="210" r="4" fill="rgba(0, 153, 102, 0.15)" />
  <circle cx="200" cy="202" r="1.5" fill="#00ff99" />
  <circle cx="200" cy="202" r="4" fill="rgba(0, 153, 102, 0.15)" />
  <circle cx="200" cy="222" r="1.5" fill="#00ff99" />
  <circle cx="200" cy="222" r="4" fill="rgba(0, 153, 102, 0.15)" />
  <circle cx="200" cy="212" r="1.5" fill="#00ff99" />
  <circle cx="200" cy="212" r="4" fill="rgba(0, 153, 102, 0.15)" />
  <circle cx="200" cy="190" r="1.5" fill="#00ff99" />
  <circle cx="200" cy="190" r="4" fill="rgba(0, 153, 102, 0.15)" />
  <circle cx="200" cy="235" r="1.5" fill="#00ff99" />
  <circle cx="200" cy="235" r="4" fill="rgba(0, 153, 102, 0.15)" />
  <circle cx="170" cy="185" r="1.5" fill="#00ff99" />
  <circle cx="170" cy="185" r="4" fill="rgba(0, 153, 102, 0.15)" />
  <circle cx="200" cy="178" r="1.5" fill="#00ff99" />
  <circle cx="200" cy="178" r="4" fill="rgba(0, 153, 102, 0.15)" />
  <circle cx="230" cy="182" r="1.5" fill="#00ff99" />
  <circle cx="230" cy="182" r="4" fill="rgba(0, 153, 102, 0.15)" />
  <circle cx="170" cy="230" r="1.5" fill="#00ff99" />
  <circle cx="170" cy="230" r="4" fill="rgba(0, 153, 102, 0.15)" />
  <circle cx="165" cy="258" r="1.5" fill="#00ff99" />
  <circle cx="165" cy="258" r="4" fill="rgba(0, 153, 102, 0.15)" />
  <circle cx="205" cy="265" r="1.5" fill="#00ff99" />
  <circle cx="205" cy="265" r="4" fill="rgba(0, 153, 102, 0.15)" />
  <circle cx="240" cy="220" r="1.5" fill="#00ff99" />
  <circle cx="240" cy="220" r="4" fill="rgba(0, 153, 102, 0.15)" />
  <circle cx="235" cy="250" r="1.5" fill="#00ff99" />
  <circle cx="235" cy="250" r="4" fill="rgba(0, 153, 102, 0.15)" />
  <circle cx="182" cy="290" r="1.5" fill="#00ff99" />
  <circle cx="182" cy="290" r="4" fill="rgba(0, 153, 102, 0.15)" />
  <circle cx="185" cy="335" r="1.5" fill="#00ff99" />
  <circle cx="185" cy="335" r="4" fill="rgba(0, 153, 102, 0.15)" />
  <circle cx="220" cy="375" r="1.5" fill="#00ff99" />
  <circle cx="220" cy="375" r="4" fill="rgba(0, 153, 102, 0.15)" />
  <circle cx="280" cy="360" r="1.5" fill="#00ff99" />
  <circle cx="280" cy="360" r="4" fill="rgba(0, 153, 102, 0.15)" />
  <circle cx="255" cy="325" r="1.5" fill="#00ff99" />
  <circle cx="255" cy="325" r="4" fill="rgba(0, 153, 102, 0.15)" />
  <circle cx="260" cy="280" r="1.5" fill="#00ff99" />
  <circle cx="260" cy="280" r="4" fill="rgba(0, 153, 102, 0.15)" />
  <circle cx="295" cy="205" r="1.5" fill="#00ff99" />
  <circle cx="295" cy="205" r="4" fill="rgba(0, 153, 102, 0.15)" />
  <circle cx="290" cy="255" r="1.5" fill="#00ff99" />
  <circle cx="290" cy="255" r="4" fill="rgba(0, 153, 102, 0.15)" />
  <circle cx="305" cy="268" r="1.5" fill="#00ff99" />
  <circle cx="305" cy="268" r="4" fill="rgba(0, 153, 102, 0.15)" />
  <circle cx="322" cy="250" r="1.5" fill="#00ff99" />
  <circle cx="322" cy="250" r="4" fill="rgba(0, 153, 102, 0.15)" />
  <circle cx="325" cy="225" r="1.5" fill="#00ff99" />
  <circle cx="325" cy="225" r="4" fill="rgba(0, 153, 102, 0.15)" />
  <circle cx="312" cy="200" r="1.5" fill="#00ff99" />
  <circle cx="312" cy="200" r="4" fill="rgba(0, 153, 102, 0.15)" />
  <circle cx="295" cy="230" r="1.5" fill="#00ff99" />
  <circle cx="295" cy="230" r="4" fill="rgba(0, 153, 102, 0.15)" />
  <circle cx="220" cy="135" r="1.5" fill="#00ff99" />
  <circle cx="220" cy="135" r="4" fill="rgba(0, 153, 102, 0.15)" />
  <circle cx="270" cy="115" r="1.5" fill="#00ff99" />
  <circle cx="270" cy="115" r="4" fill="rgba(0, 153, 102, 0.15)" />
  <circle cx="285" cy="170" r="1.5" fill="#00ff99" />
  <circle cx="285" cy="170" r="4" fill="rgba(0, 153, 102, 0.15)" />
  <circle cx="335" cy="150" r="1.5" fill="#00ff99" />
  <circle cx="335" cy="150" r="4" fill="rgba(0, 153, 102, 0.15)" />
  <circle cx="340" cy="220" r="1.5" fill="#00ff99" />
  <circle cx="340" cy="220" r="4" fill="rgba(0, 153, 102, 0.15)" />
  <circle cx="335" cy="290" r="1.5" fill="#00ff99" />
  <circle cx="335" cy="290" r="4" fill="rgba(0, 153, 102, 0.15)" />
  <circle cx="320" cy="330" r="1.5" fill="#00ff99" />
  <circle cx="320" cy="330" r="4" fill="rgba(0, 153, 102, 0.15)" />
  <circle cx="275" cy="415" r="1.5" fill="#00ff99" />
  <circle cx="275" cy="415" r="4" fill="rgba(0, 153, 102, 0.15)" />
  <circle cx="265" cy="470" r="1.5" fill="#00ff99" />
  <circle cx="265" cy="470" r="4" fill="rgba(0, 153, 102, 0.15)" />
</svg>
